<svg xmlns="http://www.w3.org/2000/svg" width="1200" height="675" viewBox="0 0 1200 675" role="img" aria-labelledby="title desc">
  <title id="title">Animal Merge preview</title>
  <desc id="desc">A physics puzzle board with colorful animal tokens merging into higher levels.</desc>
  <defs>
    <linearGradient id="bg" x1="0" x2="1" y1="0" y2="1">
      <stop offset="0" stop-color="#0b1628"/>
      <stop offset="0.52" stop-color="#173456"/>
      <stop offset="1" stop-color="#0f2c24"/>
    </linearGradient>
    <linearGradient id="rail" x1="0" x2="1">
      <stop offset="0" stop-color="#7bdcff" stop-opacity="0.65"/>
      <stop offset="1" stop-color="#8affc7" stop-opacity="0.35"/>
    </linearGradient>
    <filter id="shadow" x="-20%" y="-20%" width="140%" height="140%">
      <feDropShadow dx="0" dy="14" stdDeviation="16" flood-color="#020817" flood-opacity="0.45"/>
    </filter>
  </defs>
  <rect width="1200" height="675" fill="url(#bg)"/>
  <rect x="112" y="66" width="672" height="548" rx="28" fill="#07111f" stroke="#7bdcff" stroke-opacity="0.38" stroke-width="3"/>
  <rect x="154" y="110" width="588" height="458" rx="18" fill="#0d1c30" stroke="#ffffff" stroke-opacity="0.1"/>
  <rect x="154" y="110" width="12" height="458" fill="url(#rail)"/>
  <rect x="730" y="110" width="12" height="458" fill="url(#rail)"/>
  <path d="M168 158H728" stroke="#ff8b8b" stroke-width="4" stroke-dasharray="14 14" stroke-linecap="round" opacity="0.85"/>
  <g filter="url(#shadow)">
    <circle cx="275" cy="482" r="58" fill="#8affc7"/>
    <circle cx="390" cy="493" r="68" fill="#ffcc66"/>
    <circle cx="517" cy="470" r="78" fill="#8ecbff"/>
    <circle cx="630" cy="506" r="55" fill="#ff9cb6"/>
    <circle cx="443" cy="355" r="74" fill="#d5b3ff"/>
    <circle cx="314" cy="343" r="52" fill="#9af0ff"/>
  </g>
  <g fill="#07111f" opacity="0.82">
    <circle cx="254" cy="468" r="8"/>
    <circle cx="296" cy="468" r="8"/>
    <circle cx="368" cy="477" r="9"/>
    <circle cx="415" cy="477" r="9"/>
    <circle cx="493" cy="452" r="10"/>
    <circle cx="543" cy="452" r="10"/>
    <circle cx="612" cy="494" r="7"/>
    <circle cx="648" cy="494" r="7"/>
    <circle cx="420" cy="338" r="10"/>
    <circle cx="468" cy="338" r="10"/>
    <circle cx="298" cy="330" r="7"/>
    <circle cx="331" cy="330" r="7"/>
  </g>
  <g fill="none" stroke="#07111f" stroke-width="5" stroke-linecap="round" opacity="0.55">
    <path d="M260 494c14 11 29 11 44 0"/>
    <path d="M374 506c17 14 36 14 52 0"/>
    <path d="M498 482c22 15 42 15 62 0"/>
    <path d="M615 515c12 9 27 9 39 0"/>
    <path d="M421 370c18 13 39 13 57 0"/>
    <path d="M299 354c11 8 25 8 36 0"/>
  </g>
  <g transform="translate(830 96)">
    <rect width="258" height="130" rx="18" fill="#ffffff" fill-opacity="0.08" stroke="#ffffff" stroke-opacity="0.14"/>
    <text x="24" y="44" fill="#eaf6ff" font-family="Arial, sans-serif" font-size="25" font-weight="700">Animal Merge</text>
    <text x="24" y="82" fill="#b9d3ee" font-family="Arial, sans-serif" font-size="18">Combo physics puzzle</text>
    <text x="24" y="108" fill="#8affc7" font-family="Arial, sans-serif" font-size="18" font-weight="700">Score 12,450</text>
  </g>
  <g transform="translate(830 266)">
    <text x="0" y="0" fill="#eaf6ff" font-family="Arial, sans-serif" font-size="22" font-weight="700">Next</text>
    <rect x="0" y="22" width="74" height="86" rx="14" fill="#ffffff" fill-opacity="0.09"/>
    <rect x="92" y="22" width="74" height="86" rx="14" fill="#ffffff" fill-opacity="0.09"/>
    <rect x="184" y="22" width="74" height="86" rx="14" fill="#ffffff" fill-opacity="0.09"/>
    <circle cx="37" cy="55" r="24" fill="#9af0ff"/>
    <circle cx="129" cy="55" r="24" fill="#ffcc66"/>
    <circle cx="221" cy="55" r="24" fill="#8affc7"/>
  </g>
  <g transform="translate(830 434)" fill="#b9d3ee" font-family="Arial, sans-serif" font-size="18">
    <text x="0" y="0">Lv 1 Snake</text>
    <text x="0" y="34">Lv 5 Zebra</text>
    <text x="0" y="68">Lv 10 Whale</text>
  </g>
</svg>
