<svg xmlns="http://www.w3.org/2000/svg" width="640" height="420" viewBox="0 0 640 420" role="img" aria-labelledby="title desc">
  <title id="title">Calendar memo utility preview</title>
  <desc id="desc">A monthly calendar grid with highlighted dates and memo cards.</desc>
  <rect width="640" height="420" fill="#0f172a"/>
  <rect x="34" y="34" width="572" height="352" rx="18" fill="#111827" stroke="#334155"/>
  <rect x="62" y="72" width="330" height="276" rx="12" fill="#020617" stroke="#475569"/>
  <rect x="420" y="72" width="158" height="276" rx="12" fill="#020617" stroke="#475569"/>
  <text x="82" y="108" fill="#e2e8f0" font-family="Segoe UI, Arial, sans-serif" font-size="20" font-weight="700">May 2026</text>
  <g stroke="#334155" stroke-width="1">
    <path d="M82 128h282M82 168h282M82 208h282M82 248h282M82 288h282M82 328h282"/>
    <path d="M122 128v200M162 128v200M202 128v200M242 128v200M282 128v200M322 128v200"/>
  </g>
  <g font-family="Segoe UI, Arial, sans-serif" font-size="13" fill="#94a3b8">
    <text x="94" y="153">1</text><text x="134" y="153">2</text><text x="174" y="153">3</text><text x="214" y="153">4</text><text x="254" y="153">5</text><text x="294" y="153">6</text><text x="334" y="153">7</text>
    <text x="94" y="193">8</text><text x="130" y="193">9</text><text x="166" y="193">10</text><text x="206" y="193">11</text><text x="246" y="193">12</text><text x="286" y="193">13</text><text x="326" y="193">14</text>
    <text x="86" y="233">15</text><text x="126" y="233">16</text><text x="166" y="233">17</text><text x="206" y="233">18</text><text x="246" y="233">19</text><text x="286" y="233">20</text><text x="326" y="233">21</text>
  </g>
  <rect x="242" y="169" width="40" height="40" rx="8" fill="#0e7490"/>
  <text x="254" y="194" fill="#ecfeff" font-family="Segoe UI, Arial, sans-serif" font-size="14" font-weight="700">12</text>
  <rect x="322" y="209" width="40" height="40" rx="8" fill="#7f1d1d"/>
  <text x="334" y="234" fill="#fee2e2" font-family="Segoe UI, Arial, sans-serif" font-size="14" font-weight="700">21</text>
  <g font-family="Segoe UI, Arial, sans-serif">
    <text x="440" y="110" fill="#e2e8f0" font-size="17" font-weight="700">Memos</text>
    <rect x="440" y="132" width="116" height="52" rx="8" fill="#1e293b"/>
    <rect x="440" y="200" width="116" height="52" rx="8" fill="#1e293b"/>
    <rect x="440" y="268" width="116" height="52" rx="8" fill="#1e293b"/>
    <text x="452" y="158" fill="#cbd5e1" font-size="13">Release note</text>
    <text x="452" y="226" fill="#cbd5e1" font-size="13">Holiday</text>
    <text x="452" y="294" fill="#cbd5e1" font-size="13">Ideas</text>
  </g>
</svg>
