<svg width="640" height="360" viewBox="0 0 640 360" fill="none" xmlns="http://www.w3.org/2000/svg">
  <rect width="640" height="360" rx="24" fill="#07111f"/>
  <rect x="34" y="32" width="572" height="296" rx="18" fill="#0f172a" stroke="#334155" stroke-width="2"/>
  <rect x="62" y="62" width="238" height="168" rx="14" fill="#111827" stroke="#475569" stroke-width="2"/>
  <path d="M86 200L139 145L180 181L216 123L276 200H86Z" fill="#22c55e" opacity="0.82"/>
  <circle cx="121" cy="103" r="22" fill="#38bdf8"/>
  <rect x="328" y="68" width="238" height="24" rx="12" fill="#1e293b"/>
  <rect x="328" y="110" width="178" height="18" rx="9" fill="#334155"/>
  <rect x="328" y="144" width="214" height="18" rx="9" fill="#334155"/>
  <rect x="328" y="178" width="148" height="18" rx="9" fill="#334155"/>
  <rect x="328" y="222" width="92" height="34" rx="17" fill="#7f1d1d" stroke="#f87171" stroke-width="2"/>
  <rect x="438" y="222" width="116" height="34" rx="17" fill="#164e63" stroke="#38bdf8" stroke-width="2"/>
  <path d="M87 265H276" stroke="#475569" stroke-width="10" stroke-linecap="round"/>
  <path d="M87 292H229" stroke="#334155" stroke-width="10" stroke-linecap="round"/>
  <path d="M74 48L110 48" stroke="#22c55e" stroke-width="6" stroke-linecap="round"/>
  <path d="M120 48L132 48" stroke="#38bdf8" stroke-width="6" stroke-linecap="round"/>
  <text x="74" y="275" fill="#e2e8f0" font-family="Arial, sans-serif" font-size="18" font-weight="700">EXIF</text>
  <text x="449" y="245" fill="#e0f2fe" font-family="Arial, sans-serif" font-size="16" font-weight="700">GPS</text>
</svg>
