<svg width="1600" height="1120" viewBox="0 0 1600 1120" fill="none" xmlns="http://www.w3.org/2000/svg">
  <defs>
    <linearGradient id="bg" x1="140" y1="90" x2="1450" y2="980" gradientUnits="userSpaceOnUse">
      <stop stop-color="#0F172A"/>
      <stop offset="0.5" stop-color="#111827"/>
      <stop offset="1" stop-color="#1E293B"/>
    </linearGradient>
    <linearGradient id="panel" x1="0" y1="0" x2="900" y2="700" gradientUnits="userSpaceOnUse">
      <stop stop-color="#111827"/>
      <stop offset="1" stop-color="#0B1220"/>
    </linearGradient>
    <linearGradient id="soft" x1="0" y1="0" x2="320" y2="320" gradientUnits="userSpaceOnUse">
      <stop stop-color="#E5EEF8" stop-opacity="0.12"/>
      <stop offset="1" stop-color="#E5EEF8" stop-opacity="0"/>
    </linearGradient>
    <filter id="shadow" x="-20%" y="-20%" width="140%" height="140%">
      <feDropShadow dx="0" dy="18" stdDeviation="24" flood-color="#020617" flood-opacity="0.38"/>
    </filter>
  </defs>

  <rect width="1600" height="1120" fill="url(#bg)"/>
  <circle cx="1260" cy="180" r="240" fill="#7DD3FC" fill-opacity="0.06"/>
  <circle cx="250" cy="980" r="260" fill="#94A3B8" fill-opacity="0.05"/>
  <circle cx="1520" cy="920" r="200" fill="#E2E8F0" fill-opacity="0.04"/>

  <text x="120" y="90" fill="#E2E8F0" font-size="34" font-family="Segoe UI, Arial, sans-serif" font-weight="700">Homepage Preview</text>
  <text x="120" y="124" fill="#94A3B8" font-size="18" font-family="Segoe UI, Arial, sans-serif">Codex-inspired tone with a quiet home, an about page, and an admin entry.</text>

  <rect x="100" y="170" width="650" height="860" rx="34" fill="url(#panel)" stroke="#334155" stroke-width="1.5" filter="url(#shadow)"/>
  <rect x="850" y="170" width="650" height="860" rx="34" fill="url(#panel)" stroke="#334155" stroke-width="1.5" filter="url(#shadow)"/>

  <text x="130" y="210" fill="#CBD5E1" font-size="16" font-family="Segoe UI, Arial, sans-serif" font-weight="600">Initial state</text>
  <text x="880" y="210" fill="#CBD5E1" font-size="16" font-family="Segoe UI, Arial, sans-serif" font-weight="600">After utilities are registered</text>

  <rect x="130" y="245" width="590" height="70" rx="22" fill="#0B1220" stroke="#1E293B"/>
  <text x="164" y="288" fill="#F8FAFC" font-size="28" font-family="Segoe UI, Arial, sans-serif" font-weight="700">DOPT</text>
  <rect x="575" y="261" width="115" height="38" rx="19" fill="#E2E8F0" fill-opacity="0.1" stroke="#475569"/>
  <text x="612" y="286" fill="#E2E8F0" font-size="15" font-family="Segoe UI, Arial, sans-serif" font-weight="600">admin</text>
  <rect x="474" y="261" width="86" height="38" rx="19" fill="#E2E8F0" fill-opacity="0.06" stroke="#334155"/>
  <text x="501" y="286" fill="#CBD5E1" font-size="15" font-family="Segoe UI, Arial, sans-serif" font-weight="600">about</text>

  <text x="130" y="372" fill="#F8FAFC" font-size="46" font-family="Georgia, Times New Roman, serif" font-weight="700">A small space for personal hobbies.</text>
  <text x="130" y="412" fill="#94A3B8" font-size="20" font-family="Segoe UI, Arial, sans-serif">This site is a quiet place for things I like to make and keep.</text>
  <text x="130" y="440" fill="#94A3B8" font-size="20" font-family="Segoe UI, Arial, sans-serif">It starts simple and grows with time.</text>

  <rect x="130" y="510" width="590" height="420" rx="30" fill="#0B1220" stroke="#1E293B"/>
  <rect x="158" y="540" width="90" height="28" rx="14" fill="#E2E8F0" fill-opacity="0.08"/>
  <text x="182" y="559" fill="#CBD5E1" font-size="13" font-family="Segoe UI, Arial, sans-serif">Utilities</text>
  <circle cx="425" cy="690" r="86" fill="url(#soft)"/>
  <rect x="315" y="626" width="220" height="128" rx="28" fill="#0F172A" stroke="#334155"/>
  <rect x="380" y="663" width="90" height="9" rx="4.5" fill="#64748B"/>
  <rect x="358" y="686" width="134" height="9" rx="4.5" fill="#334155"/>
  <text x="266" y="816" fill="#E2E8F0" font-size="28" font-family="Segoe UI, Arial, sans-serif" font-weight="700">No utilities yet</text>
  <text x="214" y="852" fill="#94A3B8" font-size="18" font-family="Segoe UI, Arial, sans-serif">Utilities registered in the admin page will appear here.</text>

  <rect x="880" y="245" width="590" height="70" rx="22" fill="#0B1220" stroke="#1E293B"/>
  <text x="914" y="288" fill="#F8FAFC" font-size="28" font-family="Segoe UI, Arial, sans-serif" font-weight="700">DOPT</text>
  <rect x="1325" y="261" width="115" height="38" rx="19" fill="#E2E8F0" fill-opacity="0.1" stroke="#475569"/>
  <text x="1362" y="286" fill="#E2E8F0" font-size="15" font-family="Segoe UI, Arial, sans-serif" font-weight="600">admin</text>
  <rect x="1224" y="261" width="86" height="38" rx="19" fill="#E2E8F0" fill-opacity="0.06" stroke="#334155"/>
  <text x="1251" y="286" fill="#CBD5E1" font-size="15" font-family="Segoe UI, Arial, sans-serif" font-weight="600">about</text>

  <text x="880" y="372" fill="#F8FAFC" font-size="46" font-family="Georgia, Times New Roman, serif" font-weight="700">A small space for personal hobbies.</text>
  <text x="880" y="412" fill="#94A3B8" font-size="20" font-family="Segoe UI, Arial, sans-serif">A simple home for the small things I want to collect and build.</text>

  <rect x="880" y="500" width="278" height="170" rx="28" fill="#0B1220" stroke="#334155"/>
  <rect x="904" y="526" width="116" height="26" rx="13" fill="#38BDF8" fill-opacity="0.15" stroke="#0EA5E9"/>
  <text x="930" y="544" fill="#BAE6FD" font-size="13" font-family="Segoe UI, Arial, sans-serif">/week-calendar</text>
  <text x="904" y="590" fill="#F8FAFC" font-size="24" font-family="Segoe UI, Arial, sans-serif" font-weight="700">Week Calendar</text>
  <text x="904" y="624" fill="#94A3B8" font-size="16" font-family="Segoe UI, Arial, sans-serif">Fast weekly planning view with a clean layout.</text>
  <rect x="904" y="640" width="104" height="12" rx="6" fill="#334155"/>

  <rect x="1192" y="500" width="278" height="170" rx="28" fill="#0B1220" stroke="#334155"/>
  <rect x="1216" y="526" width="68" height="26" rx="13" fill="#E2E8F0" fill-opacity="0.08" stroke="#475569"/>
  <text x="1239" y="544" fill="#CBD5E1" font-size="13" font-family="Segoe UI, Arial, sans-serif">/diff</text>
  <text x="1216" y="590" fill="#F8FAFC" font-size="24" font-family="Segoe UI, Arial, sans-serif" font-weight="700">Diff</text>
  <text x="1216" y="624" fill="#94A3B8" font-size="16" font-family="Segoe UI, Arial, sans-serif">Compare text quickly without visual noise.</text>
  <rect x="1216" y="640" width="96" height="12" rx="6" fill="#334155"/>

  <rect x="880" y="702" width="590" height="228" rx="30" fill="#0B1220" stroke="#1E293B"/>
  <text x="908" y="742" fill="#CBD5E1" font-size="15" font-family="Segoe UI, Arial, sans-serif" font-weight="600">About page preview</text>
  <circle cx="954" cy="820" r="48" fill="#111827" stroke="#334155"/>
  <circle cx="954" cy="804" r="16" fill="#475569"/>
  <rect x="928" y="826" width="52" height="20" rx="10" fill="#475569"/>
  <text x="1024" y="792" fill="#F8FAFC" font-size="26" font-family="Georgia, Times New Roman, serif" font-weight="700">Hello, I'm DOPT.</text>
  <text x="1024" y="824" fill="#94A3B8" font-size="17" font-family="Segoe UI, Arial, sans-serif">A small space for my hobbies, experiments, and projects.</text>
  <rect x="1024" y="852" width="118" height="28" rx="14" fill="#E2E8F0" fill-opacity="0.08" stroke="#475569"/>
  <text x="1052" y="871" fill="#CBD5E1" font-size="13" font-family="Segoe UI, Arial, sans-serif">LinkedIn</text>
  <rect x="1154" y="852" width="94" height="28" rx="14" fill="#E2E8F0" fill-opacity="0.08" stroke="#475569"/>
  <text x="1186" y="871" fill="#CBD5E1" font-size="13" font-family="Segoe UI, Arial, sans-serif">GitHub</text>
  <rect x="1260" y="852" width="118" height="28" rx="14" fill="#E2E8F0" fill-opacity="0.08" stroke="#475569"/>
  <text x="1284" y="871" fill="#CBD5E1" font-size="13" font-family="Segoe UI, Arial, sans-serif">Projects</text>
  <text x="1024" y="908" fill="#E2E8F0" font-size="16" font-family="Segoe UI, Arial, sans-serif">Photo + greeting + project list + external links, managed from admin.</text>

  <text x="120" y="1080" fill="#64748B" font-size="16" font-family="Segoe UI, Arial, sans-serif">Mockup only. This preview is for visual direction before implementation.</text>
</svg>
